<?xml version="1.0" encoding="utf-8"?>
<!-- Generator: Adobe Illustrator 21.0.2, SVG Export Plug-In . SVG Version: 6.00 Build 0)  -->
<svg version="1.1" id="Layer_1" xmlns="http://www.w3.org/2000/svg" xmlns:xlink="http://www.w3.org/1999/xlink" x="0px" y="0px"
	 viewBox="0 0 489.9 459.8" style="enable-background:new 0 0 489.9 459.8;" xml:space="preserve">
<style type="text/css">
	.st0{fill-rule:evenodd;clip-rule:evenodd;fill:#BBD63E;}
	.st1{fill-rule:evenodd;clip-rule:evenodd;fill:#0090D3;}
	.st2{fill-rule:evenodd;clip-rule:evenodd;fill:#7B74B6;}
	.st3{fill-rule:evenodd;clip-rule:evenodd;fill:#EC1D25;}
	.st4{fill-rule:evenodd;clip-rule:evenodd;fill:#F7931E;}
	.st5{fill-rule:evenodd;clip-rule:evenodd;fill:#FCCC25;}
	.st6{fill:#19498F;}
	.st7{fill-rule:evenodd;clip-rule:evenodd;}
</style>
<g>
	<path d="M60.9,367.8c8.3,0,18.2-0.9,23.4-3c2.2-0.9,2.7-1.6,3.4-3.8c1.3-4.4,2.9-15.7,2.9-17.3c0-1-0.3-1.9-1.2-1.9
		c-1,0-1.3,0.5-1.7,2.6c-0.5,2.3-2.2,6.1-4.4,8.6c-5.2,6-12.2,7.3-23.8,7.3c-17.4,0-40.9-15.3-40.9-46.2c0-12.6,2.5-24.9,11.9-33.6
		c5.7-5.2,13.1-8,24.4-8c11.9,0,22.1,3.5,26.4,8c3.2,3.4,4.9,7.9,5.1,11.9c0,1.8,0.3,2.9,1.3,2.9c1.2,0,1.4-1,1.6-3
		c0.3-2.6,0.1-9.7,0.4-14c0.3-4.5,0.6-6.1,0.6-7.1c0-0.8-0.5-1.4-1.9-1.6c-3.9-0.4-8-1.6-13-2.2c-6-0.8-10.8-1.3-18.8-1.3
		c-19.3,0-31.7,5.2-41,13.8C3,291.2,0.3,306.5,0.3,315.4c0,12.6,3.4,27.1,16.1,38.3C28.2,363.9,43.2,367.8,60.9,367.8L60.9,367.8z"
		/>
	<path d="M130.2,328.3c0,11.9,0,22.2-0.6,27.6c-0.5,3.8-1.2,6.6-3.8,7.1c-1.2,0.3-2.7,0.5-4.7,0.5c-1.6,0-2.1,0.4-2.1,1
		c0,0.9,0.9,1.3,2.6,1.3c5.2,0,13.4-0.4,15.8-0.4c1.9,0,11.6,0.4,19.1,0.4c1.7,0,2.6-0.4,2.6-1.3c0-0.6-0.5-1-1.6-1
		c-1.6,0-4.4-0.3-6.4-0.5c-3.9-0.5-4.7-3.4-5.1-7.1c-0.6-5.5-0.6-15.7-0.6-27.8v-1.8c0-0.8,0.4-1,1-1l11.3,0.3
		c0.9,0,1.7,0.1,2.3,0.9c1.7,1.9,7.7,10.8,12.9,17.9c7.3,10,12.2,16.1,17.8,19.1c3.4,1.8,6.6,2.5,13.9,2.5H217
		c1.6,0,2.5-0.3,2.5-1.3c0-0.6-0.5-1-1.6-1c-1,0-2.2-0.1-3.6-0.4c-1.9-0.4-7.3-1.3-14.5-8.8c-7.7-8-16.6-19.6-28.2-34.1
		c13.1-10.6,17.1-19.5,17.1-29.1c0-8.7-5.2-15.3-8.8-17.8c-7-4.8-15.7-5.6-23.9-5.6c-4,0-13.9,0.4-18.3,0.4
		c-2.7,0-10.9-0.4-17.8-0.4c-1.9,0-2.9,0.3-2.9,1.2c0,0.9,0.8,1.2,2.2,1.2c1.8,0,4,0.1,5.1,0.4c4.3,0.9,5.3,3,5.6,7.4
		c0.3,4.2,0.3,7.8,0.3,27.5V328.3L130.2,328.3z M145.5,276.3c0-1,0.3-1.6,1.2-1.8c1.3-0.4,3.6-0.5,6.9-0.5c7.7,0,19.9,5.3,19.9,23.8
		c0,10.6-3.8,16.6-7.7,19.5c-2.3,1.7-4,2.2-9.2,2.2c-3.2,0-7.1-0.4-9.9-1.3c-0.9-0.4-1.2-0.9-1.2-2.3V276.3L145.5,276.3z"/>
	<path d="M240,328.3c0,11.9,0,22.2-0.6,27.6c-0.5,3.8-1.2,6.6-3.8,7.1c-1.2,0.3-2.7,0.5-4.7,0.5c-1.6,0-2.1,0.4-2.1,1
		c0,0.9,0.9,1.3,2.6,1.3c2.6,0,6-0.3,9-0.3c3.1-0.1,6-0.1,7.4-0.1c3.9,0,7.9,0.1,13.5,0.4c5.6,0.1,12.7,0.4,22.5,0.4
		c4.9,0,6.1,0,7-3.4c0.6-2.6,1.7-11.4,1.7-14.4c0-1.3,0-2.3-1-2.3c-0.9,0-1.2,0.5-1.4,1.9c-0.9,5.3-2.5,8-5.8,9.6
		c-3.4,1.6-8.8,1.6-12.2,1.6c-13.2,0-15.3-1.9-15.6-10.9c-0.1-3.8,0-15.7,0-20.1v-10.3c0-0.8,0.1-1.3,0.8-1.3c3.1,0,16,0.1,18.4,0.4
		c4.8,0.5,6.6,2.5,7.3,5.1c0.4,1.7,0.4,3.4,0.5,4.7c0,0.6,0.3,1.2,1.2,1.2c1.2,0,1.2-1.4,1.2-2.5c0-0.9,0.4-6.1,0.5-8.7
		c0.5-6.6,1-8.7,1-9.5c0-0.8-0.4-1-0.9-1c-0.6,0-1.2,0.6-2.1,1.7c-1.2,1.3-3.1,1.7-6.2,1.9c-3,0.3-17.9,0.3-20.8,0.3
		c-0.8,0-0.9-0.5-0.9-1.4V276c0-0.9,0.3-1.3,0.9-1.3c2.6,0,16.2,0.3,18.4,0.5c6.5,0.8,7.8,2.3,8.7,4.7c0.6,1.6,0.8,3.8,0.8,4.7
		c0,1.2,0.3,1.8,1.2,1.8c0.9,0,1.2-0.8,1.3-1.4c0.3-1.6,0.5-7.3,0.6-8.6c0.4-6,1-7.5,1-8.4c0-0.6-0.1-1.2-0.8-1.2
		c-0.6,0-1.4,0.4-2.1,0.5c-1,0.3-3.1,0.5-5.6,0.8c-2.5,0.1-28.3,0.1-32.5,0.1c-1.8,0-4.8-0.1-8.2-0.3c-3.2,0-7-0.1-10.5-0.1
		c-1.9,0-2.9,0.3-2.9,1.2c0,0.9,0.8,1.2,2.2,1.2c1.8,0,4,0.1,5.1,0.4c4.3,0.9,5.3,3,5.6,7.4c0.3,4.2,0.3,7.8,0.3,27.5V328.3
		L240,328.3z"/>
	<path d="M345.7,367.8c6.9,0,14.1-1.2,20.6-5.3c9.3-6.1,12.2-15.1,12.2-22.6c0-12.3-5.6-21.3-21.3-33.1l-3.6-2.7
		c-10.8-8.2-13.8-12.7-13.8-18.7c0-7.8,5.8-13.4,15.4-13.4c8.4,0,12.2,3.9,14.1,6.4c2.7,3.4,3.4,7.4,3.4,8.6c0,1.6,0.4,2.3,1.3,2.3
		c1,0,1.4-1,1.4-3.9c0-10.1,0.5-13.9,0.5-15.6c0-0.9-0.6-1.3-1.8-1.6c-3.4-0.9-8.8-2.2-17.3-2.2c-18,0-30,10.3-30,24.5
		c0,10.5,4.9,19.6,19.2,30.8l6,4.7c10.8,8.4,12.7,14.4,12.7,20.8c0,6.9-5.7,14.8-17.4,14.8c-8,0-15.7-3.5-18.6-13.1
		c-0.6-2.2-1.2-4.9-1.2-6.6c0-1-0.1-2.2-1.3-2.2c-1,0-1.4,1.4-1.6,3.4c-0.1,2.1-0.6,9.9-0.6,17c0,2.9,0.4,3.5,2.5,4.4
		C332.3,366.9,338.2,367.8,345.7,367.8L345.7,367.8z"/>
	<path d="M438.5,328.3c0,11.9,0,22.2-0.6,27.6c-0.4,3.8-1.2,6.6-3.8,7.1c-1.2,0.3-2.7,0.5-4.7,0.5c-1.6,0-2.1,0.4-2.1,1
		c0,0.9,0.9,1.3,2.6,1.3c5.2,0,13.4-0.4,16.4-0.4c3.6,0,11.8,0.4,20.4,0.4c1.4,0,2.5-0.4,2.5-1.3c0-0.6-0.6-1-2.1-1
		c-1.9,0-4.8-0.3-6.6-0.5c-3.9-0.5-4.7-3.4-5.1-7c-0.6-5.6-0.6-15.8-0.6-27.8v-53.2l16.4,0.4c11.6,0.3,15.1,3.9,15.3,7.3l0.1,1.4
		c0.1,1.9,0.4,2.6,1.4,2.6c0.8,0,1-0.8,1.2-2.1c0-3.4,0.4-12.3,0.4-15.1c0-1.9-0.1-2.7-1-2.7c-0.5,0-1.6,0.3-3.5,0.6
		c-1.9,0.3-4.8,0.6-9,0.6h-51.4c-4.3,0-9.2-0.3-13-0.6c-3.2-0.3-4.5-1.6-5.6-1.6c-0.8,0-1.2,0.8-1.6,2.5c-0.3,1-2.7,12.9-2.7,14.9
		c0,1.4,0.3,2.1,1.2,2.1c0.8,0,1.2-0.5,1.4-1.6c0.3-1,0.9-2.6,2.2-4.5c1.9-2.9,5.1-3.5,12.6-3.8l19.3-0.5V328.3L438.5,328.3z"/>
	<path class="st0" d="M229.3,124.7V15.5c0-20.6,31.3-20.6,31.3,0v109.2c0,6.9-3.5,11.5-8.2,13.8c-4.6,2.3-4.6,10.4,0,12.7
		c4.7,2.3,8.2,6.9,8.2,13.8v24.8c0,6.9-3.5,11.5-8.2,13.8c-4.6,2.2-4.6,9.6,0,11.8c4.7,2.3,8.2,6.9,8.2,13.8v2.6
		c0,20.6-31.3,20.6-31.3,0v-2.6c0-6.9,3.5-11.5,8.2-13.8c4.6-2.2,4.6-9.6,0-11.8c-4.7-2.3-8.2-6.9-8.2-13.8V165
		c0-6.9,3.5-11.5,8.2-13.8c4.6-2.3,4.6-10.4,0-12.7C232.8,136.2,229.3,131.6,229.3,124.7L229.3,124.7z"/>
	<path class="st1" d="M183.4,189.8V54.5c0-20.6,31.3-20.6,31.3,0v135.4c0,6.9-3.5,11.5-8.2,13.8c-2.1,1-3.4,3.1-3.4,5.5v0.9
		c0,2.4,1.3,4.4,3.4,5.5c4.7,2.3,8.2,6.9,8.2,13.8v2.6c0,20.6-31.3,20.6-31.3,0v-2.6c0-6.9,3.5-11.5,8.2-13.8c2.1-1,3.4-3.1,3.4-5.5
		V209c0-2.4-1.3-4.4-3.4-5.5C186.9,201.3,183.4,196.7,183.4,189.8L183.4,189.8z"/>
	<path class="st2" d="M137.6,116.1V94.7c0-20.6,31.3-20.6,31.3,0v21.4c0,6.9-3.5,11.5-8.2,13.8c-4.6,2.2-4.6,9.6,0,11.8
		c4.7,2.3,8.2,6.9,8.2,13.8v76.2c0,20.6-31.3,20.6-31.3,0v-76.2c0-6.9,3.5-11.5,8.2-13.8c4.6-2.2,4.6-9.6,0-11.8
		C141.1,127.6,137.6,123,137.6,116.1L137.6,116.1z"/>
	<path class="st3" d="M91.7,231.8v-97.7c0-20.6,31.3-20.6,31.3,0v97.7C123,252.4,91.7,252.4,91.7,231.8L91.7,231.8z"/>
	<path class="st4" d="M45.9,176.1V174c0-20.6,31.3-20.6,31.3,0v2.1c0,7.1-3.7,11.8-8.6,14c-4,1.8-4,8.6,0,10.4
		c4.9,2.2,8.6,6.9,8.6,14v17.3c0,20.6-31.3,20.6-31.3,0v-17.3c0-7.1,3.7-11.8,8.6-14c4-1.8,4-8.6,0-10.4
		C49.6,187.9,45.9,183.2,45.9,176.1L45.9,176.1z"/>
	<path class="st5" d="M0,231.8l0-0.9c0-20.6,31.3-20.6,31.3,0l0,0.9C31.3,252.4,0,252.4,0,231.8L0,231.8z"/>
	<path class="st1" d="M306.4,96.4v135.4c0,20.6-31.3,20.6-31.3,0V96.4c0-6.9,3.5-11.5,8.2-13.8c2.1-1,3.4-3.1,3.4-5.5v-0.9
		c0-2.4-1.3-4.4-3.4-5.5c-4.7-2.3-8.2-6.9-8.2-13.8v-2.6c0-20.6,31.3-20.6,31.3,0V57c0,6.9-3.5,11.5-8.2,13.8
		c-2.1,1-3.4,3.1-3.4,5.5v0.9c0,2.4,1.3,4.4,3.4,5.5C302.9,84.9,306.4,89.5,306.4,96.4L306.4,96.4z"/>
	<path class="st2" d="M352.3,210.4v21.4c0,20.6-31.3,20.6-31.3,0v-21.4c0-6.9,3.5-11.5,8.2-13.8c4.6-2.2,4.6-9.6,0-11.8
		c-4.7-2.3-8.2-6.9-8.2-13.8V94.7c0-20.6,31.3-20.6,31.3,0V171c0,6.9-3.5,11.5-8.2,13.8c-4.6,2.2-4.6,9.6,0,11.8
		C348.8,198.9,352.3,203.5,352.3,210.4L352.3,210.4z"/>
	<path class="st3" d="M398.1,134.1v97.7c0,20.6-31.3,20.6-31.3,0v-97.7C366.9,113.5,398.1,113.5,398.1,134.1L398.1,134.1z"/>
	<path class="st4" d="M444,229.6v2.1c0,20.6-31.3,20.6-31.3,0v-2.1c0-7.1,3.7-11.8,8.6-14c4-1.8,4-8.6,0-10.4
		c-4.9-2.2-8.6-6.9-8.6-14V174c0-20.6,31.3-20.6,31.3,0v17.3c0,7.1-3.7,11.8-8.6,14c-4,1.8-4,8.6,0,10.4
		C440.3,217.8,444,222.5,444,229.6L444,229.6z"/>
	<path class="st5" d="M489.9,230.9l0,0.9c0,20.6-31.3,20.6-31.3,0l0-0.9C458.6,210.2,489.8,210.2,489.9,230.9L489.9,230.9z"/>
	<path class="st6" d="M15,426.2c2.8,0,4.7-0.6,5.1-0.9c0.3-0.2,0.5-0.8,0.5-1.6c0-5.7-4-8.9-9.1-8.9c-6,0-11.2,5-11.2,11.8
		c0,7.1,4.5,11.3,11.1,11.3c1.9,0,4.2-0.7,5.2-1c0.8-0.5,3.2-2.9,3.5-4.5l-0.3-0.8c-1.1,0.5-3.2,2-4.7,3.2c-0.4,0.1-0.9,0.2-1.4,0.2
		c-4.1,0-7.2-3.3-7.2-8.2c0-0.2,0-0.4,0-0.6H15L15,426.2z M6.7,424.1c0-2.7,1.5-7.3,4.5-7.3c2.3,0,3.5,2.4,3.5,5.7
		c0,0.6-0.1,1.2-0.2,1.6H6.7L6.7,424.1z"/>
	<path class="st6" d="M55.2,417.6c0-5.3,0-10.6,0.1-14.7c-3.5,0.2-7.1,0.9-9.1,1.6l-0.3,1l3.1,1.3c0.1,2.6,0.1,6.3,0.1,9.3l0,0
		c-1.4-0.8-2.8-1.3-3.6-1.3c-5.2,0-12.3,3.9-12.3,12.2c0,7.4,5.9,10.9,10.4,10.9c2.5,0,5.1-2.1,5.9-2.6l0.1,0
		c0.9,1.8,3.2,2.7,5.6,2.7c1.6,0,2.8-0.4,3.3-0.7l0.4-0.8c-0.9-0.4-2.4-1.2-3.6-2.8V417.6L55.2,417.6z M49.1,433.6
		c-1,0.6-1.9,0.8-2.7,0.8c-3.8,0-7-3.4-7-8.3c0-5.1,3.4-8.6,7-8.6c0.9,0,1.9,0.2,2.6,0.7V433.6L49.1,433.6z"/>
	<path class="st6" d="M72.8,418.6c0,3.1-0.1,8-0.1,11.6c0,2.8,0.6,4.7,2.1,6c1.2,1.1,3.1,1.8,4.9,1.8c3,0,5.2-1.6,7.1-3.6h0.1
		c0.8,2.8,3.2,3.5,5.3,3.5c1.6,0,3.4-0.6,3.8-1.1l0.2-0.7c-0.9-0.3-2.7-1.1-3.6-2.6c0-12.8,0-16.1,0.1-18.3c-2.8,0-7.1,0.4-9.2,0.8
		l-0.5,1.1c3,1.2,3.4,1.5,3.5,2.2v13c-1.1,1.3-2.8,1.9-4,1.9c-1.4,0-2.4-0.5-3.1-1.3c-0.5-0.7-0.8-1.8-0.8-3.9
		c0-7.4,0.2-11.2,0.3-13.9c-3,0-6.7,0.4-8.6,0.9l-0.4,1.1L72.8,418.6L72.8,418.6z"/>
	<path class="st6" d="M107.7,426.8c0,8,6.4,11.1,12.2,11.1c1.8,0,3.9-0.5,4.7-0.8c0.9-0.5,2.9-3,3.3-4.2l-0.4-1
		c-1,0.5-2.7,1.6-4.2,2.8c-0.4,0.2-0.8,0.3-1.3,0.3c-5,0-7.8-4-7.8-9.1c0-4.6,2.4-9.1,7.3-9.1c0.7,0,1.1,0.1,1.4,0.2
		c0.6,2.5,1.4,4.8,1.9,5.7l0.8-0.2c0.9-1.5,1.9-4.7,2.1-5.8c-0.9-0.8-3.5-1.9-6.8-1.9C114.7,414.8,107.7,418.6,107.7,426.8
		L107.7,426.8L107.7,426.8z"/>
	<path class="st6" d="M152.6,424.2c-3.3,0.9-8.6,2.7-10.1,3.6c-1.3,0.7-2.1,1.9-2.1,4c0,2.7,2.2,6.1,6.4,6.1c1.7,0,3.4-0.8,5.8-2.8
		h0.1c0.4,1.1,1.8,2.7,5.2,2.7c1.9,0,3.3-0.8,3.8-1.2l0.2-0.7c-1.5-0.5-3.2-1.7-3.6-2.6c0-3.2,0.1-7.4,0.1-10.9c0-3-1.7-7.5-7.7-7.5
		c-1.1,0-2.2,0.3-3.5,0.8c-2.3,0.8-5.2,2.5-6.9,3.9c0.7,2.1,3.4,4.4,3.9,4.6l0.4-0.3c0.3-1.1,0.7-3.8,0.9-5.7
		c0.6-0.2,1.6-0.6,2.6-0.6c2.1,0,4.3,1,4.3,5.3L152.6,424.2L152.6,424.2z M146.5,430.8c0-1.3,0.4-2.1,1.6-2.8c1.2-0.7,3.2-1.5,4.5-2
		l-0.1,6.5c0,0.4-0.1,0.8-0.4,1.1c-0.6,0.6-1.4,0.9-2.1,0.9C148.6,434.5,146.5,433.6,146.5,430.8L146.5,430.8L146.5,430.8z"/>
	<path class="st6" d="M181.4,415.5l0.2-7.2c-0.6,0-3,0.6-3.9,1.3c-0.7,1.1-1.9,4.6-2.3,5.9h-2.5l-0.7,1.9l3.1,0.8v12.4
		c0,3,0.3,4.1,1.1,5.2c1.2,1.4,3.1,2.2,5.5,2.2c3,0,5.4-1.3,6.5-3.1l0-1.7l-0.2,0c-0.8,0.6-2.1,1.2-3.9,1.2c-1,0-1.9-0.3-2.4-0.7
		c-0.2-0.3-0.6-0.9-0.6-2.1c0-5.7,0-10.4,0-13.4l6.5-0.7l0.9-1.9H181.4L181.4,415.5z"/>
	<path class="st6" d="M205.3,404.3c-1,0.6-2.4,2.1-3.3,3.4l-0.1,0.5c0.5,1.1,2,2.7,3.1,3.4l0.5-0.1c0.8-0.5,2.6-2.3,3.2-3.4l0.1-0.5
		c-0.6-1.2-2.2-3.1-3.1-3.4L205.3,404.3L205.3,404.3z M199.8,417.5l2.7,1.3v6.1c0,3.9,0,7.9-0.1,9.6l-2.7,1.5l-0.3,1.4c2,0,4,0,6,0
		c2.2,0,4.1,0,6.2,0l0.3-1.4l-3.4-1.5c0-1.2-0.1-3.9-0.1-9.5v-10.2c-3.5,0.2-7.6,1.3-8.4,1.5L199.8,417.5L199.8,417.5z"/>
	<path class="st6" d="M235.5,414.8c-5.9,0-11.8,4.4-11.8,11.8c0,7.2,5.6,11.3,11.7,11.3c6.8,0,11.7-4.7,11.7-11.8
		C247.2,419.5,242.4,414.8,235.5,414.8L235.5,414.8L235.5,414.8z M235.3,416.8c3.7,0,5.2,5.9,5.2,10c0,3.6-0.8,9.3-4.7,9.3
		c-3.8,0-5.5-5.8-5.5-10.2C230.4,421.8,231.7,416.8,235.3,416.8L235.3,416.8L235.3,416.8z"/>
	<path class="st6" d="M262.6,423.3c0,5.8,0,10.6-0.1,11.2l-2.7,1.5l-0.3,1.3c2,0,4,0,6.1,0c1.8,0,3.7,0,5.4,0l0.3-1.3l-2.5-1.5
		c-0.1-0.9-0.1-10.3-0.1-14.1c1.2-1.1,2.8-1.9,4.2-1.9c2.3,0,3.9,1.6,3.9,4.7c0,6.3-0.1,9.7-0.2,11.1l-2,1.6l-0.3,1.3
		c1.8,0,3.6,0,5.3,0c2.2,0,4.3,0,6.3,0l0.3-1.3l-2.6-1.2c-0.6-0.2-0.9-0.5-0.9-1.1v-11.1c0-3.6-1.6-7.8-7-7.8
		c-2.1,0-4.5,1.4-7.4,3.7l-0.1,0l0.3-3.7c-1.3,0-7.3,1.5-8.1,2.1l-0.4,1.1l2.5,1.2V423.3L262.6,423.3z"/>
	<path class="st6" d="M309.2,426.8c0,8,6.4,11.1,12.2,11.1c1.8,0,3.9-0.5,4.7-0.8c0.9-0.5,2.9-3,3.3-4.2l-0.4-1
		c-1,0.5-2.7,1.6-4.2,2.8c-0.4,0.2-0.8,0.3-1.3,0.3c-5,0-7.8-4-7.8-9.1c0-4.6,2.4-9.1,7.3-9.1c0.7,0,1.1,0.1,1.4,0.2
		c0.6,2.5,1.4,4.8,1.9,5.7l0.8-0.2c0.9-1.5,1.9-4.7,2.1-5.8c-0.9-0.8-3.5-1.9-6.8-1.9C316.2,414.8,309.2,418.6,309.2,426.8
		L309.2,426.8L309.2,426.8z"/>
	<path class="st6" d="M356.2,426.2c2.8,0,4.7-0.6,5.1-0.9c0.3-0.2,0.5-0.8,0.5-1.6c0-5.7-4-8.9-9.1-8.9c-6,0-11.2,5-11.2,11.8
		c0,7.1,4.5,11.3,11.1,11.3c1.9,0,4.2-0.7,5.2-1c0.8-0.5,3.2-2.9,3.5-4.5l-0.3-0.8c-1.1,0.5-3.2,2-4.7,3.2c-0.4,0.1-0.9,0.2-1.4,0.2
		c-4.1,0-7.2-3.3-7.2-8.2c0-0.2,0-0.4,0-0.6H356.2L356.2,426.2z M347.8,424.1c0-2.7,1.5-7.3,4.5-7.3c2.3,0,3.5,2.4,3.5,5.7
		c0,0.6-0.1,1.2-0.2,1.6H347.8L347.8,424.1z"/>
	<path class="st6" d="M377.1,423.3c0,5.8,0,10.6-0.1,11.2l-2.7,1.5l-0.3,1.3c2,0,4,0,6.1,0c1.8,0,3.7,0,5.4,0l0.3-1.3l-2.5-1.5
		c-0.1-0.9-0.1-10.3-0.1-14.1c1.2-1.1,2.8-1.9,4.2-1.9c2.3,0,3.9,1.6,3.9,4.7c0,6.3-0.1,9.7-0.2,11.1l-2,1.6l-0.3,1.3
		c1.8,0,3.6,0,5.3,0c2.2,0,4.3,0,6.3,0l0.3-1.3l-2.6-1.2c-0.6-0.2-0.9-0.5-0.9-1.1v-11.1c0-3.6-1.6-7.8-7-7.8
		c-2.1,0-4.5,1.4-7.4,3.7l-0.1,0l0.3-3.7c-1.3,0-7.3,1.5-8.1,2.1l-0.4,1.1l2.5,1.2V423.3L377.1,423.3z"/>
	<path class="st6" d="M420.3,415.5l0.2-7.2c-0.6,0-3,0.6-3.9,1.3c-0.7,1.1-1.9,4.6-2.3,5.9h-2.5l-0.7,1.9l3.1,0.8v12.4
		c0,3,0.3,4.1,1.1,5.2c1.2,1.4,3.1,2.2,5.5,2.2c3,0,5.4-1.3,6.5-3.1l0-1.7l-0.2,0c-0.8,0.6-2.1,1.2-3.9,1.2c-1,0-1.9-0.3-2.4-0.7
		c-0.2-0.3-0.6-0.9-0.6-2.1c0-5.7,0-10.4,0-13.4l6.5-0.7l0.9-1.9H420.3L420.3,415.5z"/>
	<path class="st6" d="M453.5,426.2c2.8,0,4.7-0.6,5.1-0.9c0.3-0.2,0.5-0.8,0.5-1.6c0-5.7-4-8.9-9.1-8.9c-6,0-11.2,5-11.2,11.8
		c0,7.1,4.5,11.3,11.1,11.3c1.9,0,4.2-0.7,5.2-1c0.8-0.5,3.2-2.9,3.5-4.5l-0.3-0.8c-1.1,0.5-3.2,2-4.7,3.2c-0.4,0.1-0.9,0.2-1.4,0.2
		c-4.1,0-7.2-3.3-7.2-8.2c0-0.2,0-0.4,0-0.6H453.5L453.5,426.2z M445.2,424.1c0-2.7,1.5-7.3,4.5-7.3c2.3,0,3.5,2.4,3.5,5.7
		c0,0.6-0.1,1.2-0.2,1.6H445.2L445.2,424.1z"/>
	<path class="st6" d="M471.8,417.9l2.7,1.4c0,2.1,0,10.2-0.2,15.2l-2.7,1.5l-0.2,1.3c1.9,0,4-0.1,6-0.1c2.7,0,5.3,0.1,7.8,0.1
		l0.3-1.3l-4.9-1.5v-12.7c0.7-1.6,2.2-2.9,3.4-2.9c0.3,0,0.5,0,0.7,0.2c0.9,1.9,1.5,2.7,2,3.5l0.7-0.3c0.9-1.5,2.1-5,2.2-6.4
		c-0.5-0.6-1.4-1-2.7-1c-2.3,0-4.8,1.6-6.5,4.4h-0.1c0-1-0.2-3.4-0.5-4.4c-2,0.1-6.9,1.5-7.6,1.9L471.8,417.9L471.8,417.9z"/>
	<polygon class="st7" points="0.3,384.3 489.5,384.3 489.5,387.2 0.3,387.2 0.3,384.3 	"/>
	<polygon class="st7" points="73.7,456.8 416.2,456.8 416.2,459.8 73.7,459.8 73.7,456.8 	"/>
</g>
</svg>
