<svg id="Layer_1" xmlns="http://www.w3.org/2000/svg" viewBox="0 0 489.9 459.8"><style>.st1{fill:#0090d3}.st1,.st2,.st3,.st4,.st5{fill-rule:evenodd;clip-rule:evenodd}.st2{fill:#7b74b6}.st3{fill:#ec1d25}.st4{fill:#f7931e}.st5{fill:#fccc25}</style><path d="M60.9 367.8c8.3 0 18.2-.9 23.4-3 2.2-.9 2.7-1.6 3.4-3.8 1.3-4.4 2.9-15.7 2.9-17.3 0-1-.3-1.9-1.2-1.9-1 0-1.3.5-1.7 2.6-.5 2.3-2.2 6.1-4.4 8.6-5.2 6-12.2 7.3-23.8 7.3-17.4 0-40.9-15.3-40.9-46.2 0-12.6 2.5-24.9 11.9-33.6 5.7-5.2 13.1-8 24.4-8 11.9 0 22.1 3.5 26.4 8 3.2 3.4 4.9 7.9 5.1 11.9 0 1.8.3 2.9 1.3 2.9 1.2 0 1.4-1 1.6-3 .3-2.6.1-9.7.4-14 .3-4.5.6-6.1.6-7.1 0-.8-.5-1.4-1.9-1.6-3.9-.4-8-1.6-13-2.2-6-.8-10.8-1.3-18.8-1.3-19.3 0-31.7 5.2-41 13.8C3 291.2.3 306.5.3 315.4c0 12.6 3.4 27.1 16.1 38.3 11.8 10.2 26.8 14.1 44.5 14.1zm69.3-39.5c0 11.9 0 22.2-.6 27.6-.5 3.8-1.2 6.6-3.8 7.1-1.2.3-2.7.5-4.7.5-1.6 0-2.1.4-2.1 1 0 .9.9 1.3 2.6 1.3 5.2 0 13.4-.4 15.8-.4 1.9 0 11.6.4 19.1.4 1.7 0 2.6-.4 2.6-1.3 0-.6-.5-1-1.6-1-1.6 0-4.4-.3-6.4-.5-3.9-.5-4.7-3.4-5.1-7.1-.6-5.5-.6-15.7-.6-27.8v-1.8c0-.8.4-1 1-1l11.3.3c.9 0 1.7.1 2.3.9 1.7 1.9 7.7 10.8 12.9 17.9 7.3 10 12.2 16.1 17.8 19.1 3.4 1.8 6.6 2.5 13.9 2.5H217c1.6 0 2.5-.3 2.5-1.3 0-.6-.5-1-1.6-1-1 0-2.2-.1-3.6-.4-1.9-.4-7.3-1.3-14.5-8.8-7.7-8-16.6-19.6-28.2-34.1 13.1-10.6 17.1-19.5 17.1-29.1 0-8.7-5.2-15.3-8.8-17.8-7-4.8-15.7-5.6-23.9-5.6-4 0-13.9.4-18.3.4-2.7 0-10.9-.4-17.8-.4-1.9 0-2.9.3-2.9 1.2 0 .9.8 1.2 2.2 1.2 1.8 0 4 .1 5.1.4 4.3.9 5.3 3 5.6 7.4.3 4.2.3 7.8.3 27.5v22.7zm15.3-52c0-1 .3-1.6 1.2-1.8 1.3-.4 3.6-.5 6.9-.5 7.7 0 19.9 5.3 19.9 23.8 0 10.6-3.8 16.6-7.7 19.5-2.3 1.7-4 2.2-9.2 2.2-3.2 0-7.1-.4-9.9-1.3-.9-.4-1.2-.9-1.2-2.3v-39.6zm94.5 52c0 11.9 0 22.2-.6 27.6-.5 3.8-1.2 6.6-3.8 7.1-1.2.3-2.7.5-4.7.5-1.6 0-2.1.4-2.1 1 0 .9.9 1.3 2.6 1.3 2.6 0 6-.3 9-.3 3.1-.1 6-.1 7.4-.1 3.9 0 7.9.1 13.5.4 5.6.1 12.7.4 22.5.4 4.9 0 6.1 0 7-3.4.6-2.6 1.7-11.4 1.7-14.4 0-1.3 0-2.3-1-2.3-.9 0-1.2.5-1.4 1.9-.9 5.3-2.5 8-5.8 9.6-3.4 1.6-8.8 1.6-12.2 1.6-13.2 0-15.3-1.9-15.6-10.9-.1-3.8 0-15.7 0-20.1v-10.3c0-.8.1-1.3.8-1.3 3.1 0 16 .1 18.4.4 4.8.5 6.6 2.5 7.3 5.1.4 1.7.4 3.4.5 4.7 0 .6.3 1.2 1.2 1.2 1.2 0 1.2-1.4 1.2-2.5 0-.9.4-6.1.5-8.7.5-6.6 1-8.7 1-9.5 0-.8-.4-1-.9-1-.6 0-1.2.6-2.1 1.7-1.2 1.3-3.1 1.7-6.2 1.9-3 .3-17.9.3-20.8.3-.8 0-.9-.5-.9-1.4V276c0-.9.3-1.3.9-1.3 2.6 0 16.2.3 18.4.5 6.5.8 7.8 2.3 8.7 4.7.6 1.6.8 3.8.8 4.7 0 1.2.3 1.8 1.2 1.8.9 0 1.2-.8 1.3-1.4.3-1.6.5-7.3.6-8.6.4-6 1-7.5 1-8.4 0-.6-.1-1.2-.8-1.2-.6 0-1.4.4-2.1.5-1 .3-3.1.5-5.6.8-2.5.1-28.3.1-32.5.1-1.8 0-4.8-.1-8.2-.3-3.2 0-7-.1-10.5-.1-1.9 0-2.9.3-2.9 1.2 0 .9.8 1.2 2.2 1.2 1.8 0 4 .1 5.1.4 4.3.9 5.3 3 5.6 7.4.3 4.2.3 7.8.3 27.5v22.8zm105.7 39.5c6.9 0 14.1-1.2 20.6-5.3 9.3-6.1 12.2-15.1 12.2-22.6 0-12.3-5.6-21.3-21.3-33.1l-3.6-2.7c-10.8-8.2-13.8-12.7-13.8-18.7 0-7.8 5.8-13.4 15.4-13.4 8.4 0 12.2 3.9 14.1 6.4 2.7 3.4 3.4 7.4 3.4 8.6 0 1.6.4 2.3 1.3 2.3 1 0 1.4-1 1.4-3.9 0-10.1.5-13.9.5-15.6 0-.9-.6-1.3-1.8-1.6-3.4-.9-8.8-2.2-17.3-2.2-18 0-30 10.3-30 24.5 0 10.5 4.9 19.6 19.2 30.8l6 4.7c10.8 8.4 12.7 14.4 12.7 20.8 0 6.9-5.7 14.8-17.4 14.8-8 0-15.7-3.5-18.6-13.1-.6-2.2-1.2-4.9-1.2-6.6 0-1-.1-2.2-1.3-2.2-1 0-1.4 1.4-1.6 3.4-.1 2.1-.6 9.9-.6 17 0 2.9.4 3.5 2.5 4.4 5.8 2.4 11.7 3.3 19.2 3.3zm92.8-39.5c0 11.9 0 22.2-.6 27.6-.4 3.8-1.2 6.6-3.8 7.1-1.2.3-2.7.5-4.7.5-1.6 0-2.1.4-2.1 1 0 .9.9 1.3 2.6 1.3 5.2 0 13.4-.4 16.4-.4 3.6 0 11.8.4 20.4.4 1.4 0 2.5-.4 2.5-1.3 0-.6-.6-1-2.1-1-1.9 0-4.8-.3-6.6-.5-3.9-.5-4.7-3.4-5.1-7-.6-5.6-.6-15.8-.6-27.8V275l16.4.4c11.6.3 15.1 3.9 15.3 7.3l.1 1.4c.1 1.9.4 2.6 1.4 2.6.8 0 1-.8 1.2-2.1 0-3.4.4-12.3.4-15.1 0-1.9-.1-2.7-1-2.7-.5 0-1.6.3-3.5.6s-4.8.6-9 .6h-51.4c-4.3 0-9.2-.3-13-.6-3.2-.3-4.5-1.6-5.6-1.6-.8 0-1.2.8-1.6 2.5-.3 1-2.7 12.9-2.7 14.9 0 1.4.3 2.1 1.2 2.1.8 0 1.2-.5 1.4-1.6.3-1 .9-2.6 2.2-4.5 1.9-2.9 5.1-3.5 12.6-3.8l19.3-.5v53.4z"/><path d="M229.3 124.7V15.5c0-20.6 31.3-20.6 31.3 0v109.2c0 6.9-3.5 11.5-8.2 13.8-4.6 2.3-4.6 10.4 0 12.7 4.7 2.3 8.2 6.9 8.2 13.8v24.8c0 6.9-3.5 11.5-8.2 13.8-4.6 2.2-4.6 9.6 0 11.8 4.7 2.3 8.2 6.9 8.2 13.8v2.6c0 20.6-31.3 20.6-31.3 0v-2.6c0-6.9 3.5-11.5 8.2-13.8 4.6-2.2 4.6-9.6 0-11.8-4.7-2.3-8.2-6.9-8.2-13.8V165c0-6.9 3.5-11.5 8.2-13.8 4.6-2.3 4.6-10.4 0-12.7-4.7-2.3-8.2-6.9-8.2-13.8z" fill-rule="evenodd" clip-rule="evenodd" fill="#bbd63e"/><path class="st1" d="M183.4 189.8V54.5c0-20.6 31.3-20.6 31.3 0v135.4c0 6.9-3.5 11.5-8.2 13.8-2.1 1-3.4 3.1-3.4 5.5v.9c0 2.4 1.3 4.4 3.4 5.5 4.7 2.3 8.2 6.9 8.2 13.8v2.6c0 20.6-31.3 20.6-31.3 0v-2.6c0-6.9 3.5-11.5 8.2-13.8 2.1-1 3.4-3.1 3.4-5.5V209c0-2.4-1.3-4.4-3.4-5.5-4.7-2.2-8.2-6.8-8.2-13.7z"/><path class="st2" d="M137.6 116.1V94.7c0-20.6 31.3-20.6 31.3 0v21.4c0 6.9-3.5 11.5-8.2 13.8-4.6 2.2-4.6 9.6 0 11.8 4.7 2.3 8.2 6.9 8.2 13.8v76.2c0 20.6-31.3 20.6-31.3 0v-76.2c0-6.9 3.5-11.5 8.2-13.8 4.6-2.2 4.6-9.6 0-11.8-4.7-2.3-8.2-6.9-8.2-13.8z"/><path class="st3" d="M91.7 231.8v-97.7c0-20.6 31.3-20.6 31.3 0v97.7c0 20.6-31.3 20.6-31.3 0z"/><path class="st4" d="M45.9 176.1V174c0-20.6 31.3-20.6 31.3 0v2.1c0 7.1-3.7 11.8-8.6 14-4 1.8-4 8.6 0 10.4 4.9 2.2 8.6 6.9 8.6 14v17.3c0 20.6-31.3 20.6-31.3 0v-17.3c0-7.1 3.7-11.8 8.6-14 4-1.8 4-8.6 0-10.4-4.9-2.2-8.6-6.9-8.6-14z"/><path class="st5" d="M0 231.8v-.9c0-20.6 31.3-20.6 31.3 0v.9c0 20.6-31.3 20.6-31.3 0z"/><path class="st1" d="M306.4 96.4v135.4c0 20.6-31.3 20.6-31.3 0V96.4c0-6.9 3.5-11.5 8.2-13.8 2.1-1 3.4-3.1 3.4-5.5v-.9c0-2.4-1.3-4.4-3.4-5.5-4.7-2.3-8.2-6.9-8.2-13.8v-2.6c0-20.6 31.3-20.6 31.3 0V57c0 6.9-3.5 11.5-8.2 13.8-2.1 1-3.4 3.1-3.4 5.5v.9c0 2.4 1.3 4.4 3.4 5.5 4.7 2.2 8.2 6.8 8.2 13.7z"/><path class="st2" d="M352.3 210.4v21.4c0 20.6-31.3 20.6-31.3 0v-21.4c0-6.9 3.5-11.5 8.2-13.8 4.6-2.2 4.6-9.6 0-11.8-4.7-2.3-8.2-6.9-8.2-13.8V94.7c0-20.6 31.3-20.6 31.3 0V171c0 6.9-3.5 11.5-8.2 13.8-4.6 2.2-4.6 9.6 0 11.8 4.7 2.3 8.2 6.9 8.2 13.8z"/><path class="st3" d="M398.1 134.1v97.7c0 20.6-31.3 20.6-31.3 0v-97.7c.1-20.6 31.3-20.6 31.3 0z"/><path class="st4" d="M444 229.6v2.1c0 20.6-31.3 20.6-31.3 0v-2.1c0-7.1 3.7-11.8 8.6-14 4-1.8 4-8.6 0-10.4-4.9-2.2-8.6-6.9-8.6-14V174c0-20.6 31.3-20.6 31.3 0v17.3c0 7.1-3.7 11.8-8.6 14-4 1.8-4 8.6 0 10.4 4.9 2.1 8.6 6.8 8.6 13.9z"/><path class="st5" d="M489.9 230.9v.9c0 20.6-31.3 20.6-31.3 0v-.9c0-20.7 31.2-20.7 31.3 0z"/><path d="M15 426.2c2.8 0 4.7-.6 5.1-.9.3-.2.5-.8.5-1.6 0-5.7-4-8.9-9.1-8.9-6 0-11.2 5-11.2 11.8 0 7.1 4.5 11.3 11.1 11.3 1.9 0 4.2-.7 5.2-1 .8-.5 3.2-2.9 3.5-4.5l-.3-.8c-1.1.5-3.2 2-4.7 3.2-.4.1-.9.2-1.4.2-4.1 0-7.2-3.3-7.2-8.2v-.6H15zm-8.3-2.1c0-2.7 1.5-7.3 4.5-7.3 2.3 0 3.5 2.4 3.5 5.7 0 .6-.1 1.2-.2 1.6H6.7zm48.5-6.5c0-5.3 0-10.6.1-14.7-3.5.2-7.1.9-9.1 1.6l-.3 1 3.1 1.3c.1 2.6.1 6.3.1 9.3-1.4-.8-2.8-1.3-3.6-1.3-5.2 0-12.3 3.9-12.3 12.2 0 7.4 5.9 10.9 10.4 10.9 2.5 0 5.1-2.1 5.9-2.6h.1c.9 1.8 3.2 2.7 5.6 2.7 1.6 0 2.8-.4 3.3-.7l.4-.8c-.9-.4-2.4-1.2-3.6-2.8v-16.1h-.1zm-6.1 16c-1 .6-1.9.8-2.7.8-3.8 0-7-3.4-7-8.3 0-5.1 3.4-8.6 7-8.6.9 0 1.9.2 2.6.7v15.4h.1zm23.7-15c0 3.1-.1 8-.1 11.6 0 2.8.6 4.7 2.1 6 1.2 1.1 3.1 1.8 4.9 1.8 3 0 5.2-1.6 7.1-3.6h.1c.8 2.8 3.2 3.5 5.3 3.5 1.6 0 3.4-.6 3.8-1.1l.2-.7c-.9-.3-2.7-1.1-3.6-2.6 0-12.8 0-16.1.1-18.3-2.8 0-7.1.4-9.2.8l-.5 1.1c3 1.2 3.4 1.5 3.5 2.2v13c-1.1 1.3-2.8 1.9-4 1.9-1.4 0-2.4-.5-3.1-1.3-.5-.7-.8-1.8-.8-3.9 0-7.4.2-11.2.3-13.9-3 0-6.7.4-8.6.9l-.4 1.1 2.9 1.5zm34.9 8.2c0 8 6.4 11.1 12.2 11.1 1.8 0 3.9-.5 4.7-.8.9-.5 2.9-3 3.3-4.2l-.4-1c-1 .5-2.7 1.6-4.2 2.8-.4.2-.8.3-1.3.3-5 0-7.8-4-7.8-9.1 0-4.6 2.4-9.1 7.3-9.1.7 0 1.1.1 1.4.2.6 2.5 1.4 4.8 1.9 5.7l.8-.2c.9-1.5 1.9-4.7 2.1-5.8-.9-.8-3.5-1.9-6.8-1.9-6.2 0-13.2 3.8-13.2 12zm44.9-2.6c-3.3.9-8.6 2.7-10.1 3.6-1.3.7-2.1 1.9-2.1 4 0 2.7 2.2 6.1 6.4 6.1 1.7 0 3.4-.8 5.8-2.8h.1c.4 1.1 1.8 2.7 5.2 2.7 1.9 0 3.3-.8 3.8-1.2l.2-.7c-1.5-.5-3.2-1.7-3.6-2.6 0-3.2.1-7.4.1-10.9 0-3-1.7-7.5-7.7-7.5-1.1 0-2.2.3-3.5.8-2.3.8-5.2 2.5-6.9 3.9.7 2.1 3.4 4.4 3.9 4.6l.4-.3c.3-1.1.7-3.8.9-5.7.6-.2 1.6-.6 2.6-.6 2.1 0 4.3 1 4.3 5.3l.2 1.3zm-6.1 6.6c0-1.3.4-2.1 1.6-2.8 1.2-.7 3.2-1.5 4.5-2l-.1 6.5c0 .4-.1.8-.4 1.1-.6.6-1.4.9-2.1.9-1.4 0-3.5-.9-3.5-3.7zm34.9-15.3l.2-7.2c-.6 0-3 .6-3.9 1.3-.7 1.1-1.9 4.6-2.3 5.9h-2.5l-.7 1.9 3.1.8v12.4c0 3 .3 4.1 1.1 5.2 1.2 1.4 3.1 2.2 5.5 2.2 3 0 5.4-1.3 6.5-3.1v-1.7h-.2c-.8.6-2.1 1.2-3.9 1.2-1 0-1.9-.3-2.4-.7-.2-.3-.6-.9-.6-2.1v-13.4l6.5-.7.9-1.9h-7.3v-.1zm23.9-11.2c-1 .6-2.4 2.1-3.3 3.4l-.1.5c.5 1.1 2 2.7 3.1 3.4l.5-.1c.8-.5 2.6-2.3 3.2-3.4l.1-.5c-.6-1.2-2.2-3.1-3.1-3.4l-.4.1zm-5.5 13.2l2.7 1.3v6.1c0 3.9 0 7.9-.1 9.6l-2.7 1.5-.3 1.4h12.2l.3-1.4-3.4-1.5c0-1.2-.1-3.9-.1-9.5v-10.2c-3.5.2-7.6 1.3-8.4 1.5l-.2 1.2zm35.7-2.7c-5.9 0-11.8 4.4-11.8 11.8 0 7.2 5.6 11.3 11.7 11.3 6.8 0 11.7-4.7 11.7-11.8.1-6.6-4.7-11.3-11.6-11.3zm-.2 2c3.7 0 5.2 5.9 5.2 10 0 3.6-.8 9.3-4.7 9.3-3.8 0-5.5-5.8-5.5-10.2.1-4.1 1.4-9.1 5-9.1zm27.3 6.5c0 5.8 0 10.6-.1 11.2l-2.7 1.5-.3 1.3H271l.3-1.3-2.5-1.5c-.1-.9-.1-10.3-.1-14.1 1.2-1.1 2.8-1.9 4.2-1.9 2.3 0 3.9 1.6 3.9 4.7 0 6.3-.1 9.7-.2 11.1l-2 1.6-.3 1.3h11.6l.3-1.3-2.6-1.2c-.6-.2-.9-.5-.9-1.1v-11.1c0-3.6-1.6-7.8-7-7.8-2.1 0-4.5 1.4-7.4 3.7h-.1l.3-3.7c-1.3 0-7.3 1.5-8.1 2.1l-.4 1.1 2.5 1.2v4.2h.1zm46.6 3.5c0 8 6.4 11.1 12.2 11.1 1.8 0 3.9-.5 4.7-.8.9-.5 2.9-3 3.3-4.2l-.4-1c-1 .5-2.7 1.6-4.2 2.8-.4.2-.8.3-1.3.3-5 0-7.8-4-7.8-9.1 0-4.6 2.4-9.1 7.3-9.1.7 0 1.1.1 1.4.2.6 2.5 1.4 4.8 1.9 5.7l.8-.2c.9-1.5 1.9-4.7 2.1-5.8-.9-.8-3.5-1.9-6.8-1.9-6.2 0-13.2 3.8-13.2 12zm47-.6c2.8 0 4.7-.6 5.1-.9.3-.2.5-.8.5-1.6 0-5.7-4-8.9-9.1-8.9-6 0-11.2 5-11.2 11.8 0 7.1 4.5 11.3 11.1 11.3 1.9 0 4.2-.7 5.2-1 .8-.5 3.2-2.9 3.5-4.5l-.3-.8c-1.1.5-3.2 2-4.7 3.2-.4.1-.9.2-1.4.2-4.1 0-7.2-3.3-7.2-8.2v-.6h8.5zm-8.4-2.1c0-2.7 1.5-7.3 4.5-7.3 2.3 0 3.5 2.4 3.5 5.7 0 .6-.1 1.2-.2 1.6h-7.8zm29.3-.8c0 5.8 0 10.6-.1 11.2l-2.7 1.5-.3 1.3h11.5l.3-1.3-2.5-1.5c-.1-.9-.1-10.3-.1-14.1 1.2-1.1 2.8-1.9 4.2-1.9 2.3 0 3.9 1.6 3.9 4.7 0 6.3-.1 9.7-.2 11.1l-2 1.6-.3 1.3h11.6l.3-1.3-2.6-1.2c-.6-.2-.9-.5-.9-1.1v-11.1c0-3.6-1.6-7.8-7-7.8-2.1 0-4.5 1.4-7.4 3.7h-.1l.3-3.7c-1.3 0-7.3 1.5-8.1 2.1l-.4 1.1 2.5 1.2v4.2h.1zm43.2-7.8l.2-7.2c-.6 0-3 .6-3.9 1.3-.7 1.1-1.9 4.6-2.3 5.9h-2.5l-.7 1.9 3.1.8v12.4c0 3 .3 4.1 1.1 5.2 1.2 1.4 3.1 2.2 5.5 2.2 3 0 5.4-1.3 6.5-3.1v-1.7h-.2c-.8.6-2.1 1.2-3.9 1.2-1 0-1.9-.3-2.4-.7-.2-.3-.6-.9-.6-2.1v-13.4l6.5-.7.9-1.9h-7.3v-.1zm33.2 10.7c2.8 0 4.7-.6 5.1-.9.3-.2.5-.8.5-1.6 0-5.7-4-8.9-9.1-8.9-6 0-11.2 5-11.2 11.8 0 7.1 4.5 11.3 11.1 11.3 1.9 0 4.2-.7 5.2-1 .8-.5 3.2-2.9 3.5-4.5l-.3-.8c-1.1.5-3.2 2-4.7 3.2-.4.1-.9.2-1.4.2-4.1 0-7.2-3.3-7.2-8.2v-.6h8.5zm-8.3-2.1c0-2.7 1.5-7.3 4.5-7.3 2.3 0 3.5 2.4 3.5 5.7 0 .6-.1 1.2-.2 1.6h-7.8zm26.6-6.2l2.7 1.4c0 2.1 0 10.2-.2 15.2l-2.7 1.5-.2 1.3c1.9 0 4-.1 6-.1 2.7 0 5.3.1 7.8.1l.3-1.3-4.9-1.5v-12.7c.7-1.6 2.2-2.9 3.4-2.9.3 0 .5 0 .7.2.9 1.9 1.5 2.7 2 3.5l.7-.3c.9-1.5 2.1-5 2.2-6.4-.5-.6-1.4-1-2.7-1-2.3 0-4.8 1.6-6.5 4.4h-.1c0-1-.2-3.4-.5-4.4-2 .1-6.9 1.5-7.6 1.9l-.4 1.1z" fill="#19498f"/><path d="M.3 384.3h489.2v2.9H.3v-2.9zm73.4 72.5h342.5v3H73.7v-3z" fill-rule="evenodd" clip-rule="evenodd"/></svg>